<svg xmlns="http://www.w3.org/2000/svg" width="360" height="520" viewBox="0 0 360 520" role="img" aria-labelledby="title desc">
  <title id="title">PDF without outline</title>
  <desc id="desc">A Zotero reader sidebar with an empty bookmark panel.</desc>
  <rect width="360" height="520" fill="#f3f4f6"/>
  <rect x="0" y="0" width="360" height="520" fill="#ffffff"/>
  <rect x="0" y="0" width="360" height="58" fill="#f7f7f7"/>
  <rect x="0" y="58" width="360" height="56" fill="#f7f7f7"/>
  <line x1="0" y1="58" x2="360" y2="58" stroke="#dedede"/>
  <line x1="0" y1="114" x2="360" y2="114" stroke="#dedede"/>

  <g fill="none" stroke="#7a7a7a" stroke-width="3" stroke-linecap="round" stroke-linejoin="round">
    <rect x="20" y="16" width="7" height="10"/>
    <rect x="32" y="16" width="7" height="10"/>
    <rect x="20" y="31" width="7" height="10"/>
    <rect x="32" y="31" width="7" height="10"/>
    <path d="M64 24h20v20H64zM58 18h20v20"/>
    <rect x="98" y="10" width="38" height="38" rx="8" fill="#dedede" stroke="none"/>
    <path d="M110 20h16v23l-8-5-8 5z"/>
    <path d="M148 16h18v29l-9-6-9 6z"/>
    <circle cx="31" cy="86" r="14"/>
    <path d="M24 86l5 5 9-10"/>
    <circle cx="83" cy="86" r="14"/>
    <path d="M78 78l8 8-8 8"/>
    <path d="M129 76h15v28l-8-5-7 5z"/>
    <path d="M140 76v-6M137 73h6"/>
    <path d="M179 76h15v28l-8-5-7 5z"/>
    <path d="M191 73h6M194 70v6"/>
    <rect x="224" y="75" width="24" height="24" rx="3"/>
    <path d="M229 75v7h14v-7"/>
  </g>

  <rect x="0" y="114" width="360" height="58" fill="#ffffff"/>
  <text x="10" y="151" font-family="Arial, 'Microsoft YaHei', sans-serif" font-size="20" fill="#111827">请点击上方按钮</text>
  <g transform="translate(154 130)" fill="none" stroke="#111827" stroke-width="3" stroke-linecap="round" stroke-linejoin="round">
    <path d="M4 0h17v26l-8-5-9 5z"/>
    <path d="M17 0v-7M13 -4h8"/>
  </g>
  <text x="182" y="151" font-family="Arial, 'Microsoft YaHei', sans-serif" font-size="20" fill="#111827">创建书签</text>

  <text x="24" y="237" font-family="Arial, 'Microsoft YaHei', sans-serif" font-size="22" font-weight="700" fill="#374151">1. 原始 PDF</text>
  <text x="24" y="267" font-family="Arial, 'Microsoft YaHei', sans-serif" font-size="16" fill="#6b7280">Zotero 左侧大纲为空，无法按章节跳转。</text>
  <rect x="24" y="312" width="312" height="132" rx="8" fill="#f9fafb" stroke="#e5e7eb"/>
  <text x="180" y="382" text-anchor="middle" font-family="Arial, 'Microsoft YaHei', sans-serif" font-size="15" fill="#9ca3af">No outline detected</text>
</svg>
